<svg width="36" height="33" viewBox="0 0 36 33" fill="none" xmlns="http://www.w3.org/2000/svg">
<path d="M29.7269 9.73982H27.1091V6.95088C27.1091 5.35267 26.5078 3.8302 25.4159 2.66406C25.2129 2.44722 24.8726 2.43611 24.6559 2.6391C24.4391 2.84209 24.428 3.18234 24.631 3.39904C25.5355 4.3652 26.0338 5.62661 26.0338 6.95088V9.73982H15.0923C11.6333 9.73982 8.81916 12.554 8.81916 16.013V17.9366H7.97695C7.64191 17.9366 7.32684 18.0671 7.08982 18.3041L4.23598 21.1579V18.2871C4.23598 17.8473 4.0005 17.434 3.6213 17.2086C2.05095 16.2749 1.07536 14.5622 1.07536 12.7389V6.95088C1.07536 4.0848 3.40706 1.75309 6.27314 1.75309H20.836C21.5078 1.75309 22.1612 1.87916 22.7781 2.12793C23.0535 2.23881 23.3668 2.10564 23.4778 1.8303C23.5889 1.55488 23.4556 1.24157 23.1802 1.13055C22.435 0.830031 21.6462 0.677734 20.836 0.677734H6.27314C2.81412 0.677734 0 3.49185 0 6.95088V12.7389C0 14.9396 1.17703 17.0064 3.07174 18.1329C3.12659 18.1655 3.16062 18.2246 3.16062 18.2872V21.4176C3.16062 21.8104 3.39511 22.1614 3.75806 22.3118C4.00029 22.4282 4.49487 22.4114 4.81282 22.102L7.85018 19.0646C7.88407 19.0307 7.92907 19.0121 7.97695 19.0121H8.81916V21.801C8.81916 22.6477 8.98509 23.4693 9.31233 24.243C9.42799 24.5165 9.74348 24.6442 10.017 24.5288C10.2905 24.4131 10.4184 24.0976 10.3028 23.8241C10.032 23.1837 9.89459 22.5031 9.89459 21.8011V16.0131C9.89459 13.147 12.2263 10.8153 15.0924 10.8153H29.7269C32.5929 10.8153 34.9246 13.147 34.9246 16.0131V21.8011C34.9246 23.6315 33.9887 25.2928 32.421 26.2453C32.0515 26.4698 31.8219 26.8795 31.8219 27.3144V30.8213L28.3669 27.3663C28.1299 27.1293 27.8149 26.9988 27.4797 26.9988H15.0923C13.7879 26.9988 12.5407 26.5136 11.5801 25.6328C11.3613 25.4322 11.0212 25.4468 10.8204 25.6656C10.6196 25.8845 10.6343 26.2246 10.8532 26.4253C12.0126 27.4887 13.518 28.0742 15.0922 28.0742H27.4796C27.5268 28.0742 27.573 28.0934 27.6063 28.1268L31.2449 31.7654C31.5259 31.9813 31.8005 32.1482 32.2996 31.9751C32.6625 31.8247 32.897 31.4738 32.897 31.0809V27.3144C32.897 27.2526 32.9285 27.195 32.9792 27.1642C34.8708 26.0151 36 24.0102 36 21.801V16.013C36 12.554 33.1859 9.73982 29.7269 9.73982Z" fill="black"/>
<path d="M20.8917 22.5628C20.5764 22.1173 20.002 21.8186 19.3469 21.8186C18.3536 21.8186 17.5456 22.5052 17.5456 23.3491C17.5456 24.193 18.3537 24.8796 19.3469 24.8796C20.2185 24.8796 20.9473 24.351 21.1129 23.6512C21.906 23.3172 22.5304 22.6515 22.8014 21.8094C23.5866 21.6306 24.1747 20.9272 24.1747 20.0885V18.1496C24.1747 17.34 23.6266 16.6564 22.8822 16.4491C22.707 15.3692 22.1762 14.3783 21.3626 13.6294C20.4548 12.7937 19.275 12.3335 18.0405 12.3335C15.6111 12.3335 13.5791 14.0834 13.1982 16.4492C12.4541 16.6566 11.9062 17.3401 11.9062 18.1495V20.0884C11.9062 21.0618 12.6982 21.8537 13.6716 21.8537C14.645 21.8537 15.4369 21.0618 15.4369 20.0884V18.1495C15.4369 17.3905 14.9554 16.7419 14.2818 16.493C14.6304 14.7116 16.1876 13.4089 18.0405 13.4089C19.8698 13.4089 21.4467 14.7344 21.7977 16.4935C21.1249 16.7428 20.644 17.391 20.644 18.1495V20.0884C20.644 20.8059 21.0744 21.4243 21.6905 21.7002C21.5196 22.0675 21.2384 22.3675 20.8917 22.5628ZM19.3469 23.8043C18.9191 23.8043 18.621 23.5645 18.621 23.3492C18.621 23.1339 18.9191 22.894 19.3469 22.894C19.7748 22.894 20.073 23.1339 20.073 23.3492C20.073 23.5645 19.7747 23.8043 19.3469 23.8043ZM14.3616 20.0885C14.3616 20.469 14.052 20.7785 13.6716 20.7785C13.2911 20.7785 12.9816 20.469 12.9816 20.0885V18.1497C12.9816 17.7692 13.2911 17.4597 13.6716 17.4597C14.052 17.4597 14.3616 17.7692 14.3616 18.1497V20.0885ZM21.7193 18.1497C21.7193 17.7692 22.0289 17.4597 22.4093 17.4597C22.7898 17.4597 23.0993 17.7692 23.0993 18.1497V20.0885C23.0993 20.469 22.7898 20.7785 22.4093 20.7785C22.0289 20.7785 21.7193 20.469 21.7193 20.0885V18.1497Z" fill="black"/>
<path d="M25.5728 15.381H29.8556C30.1526 15.381 30.3933 15.1403 30.3933 14.8433C30.3933 14.5463 30.1526 14.3057 29.8556 14.3057H25.5728C25.2759 14.3057 25.0352 14.5463 25.0352 14.8433C25.0352 15.1403 25.2759 15.381 25.5728 15.381Z" fill="black"/>
<path d="M25.5728 17.7883H28.8752C29.1721 17.7883 29.4129 17.5476 29.4129 17.2506C29.4129 16.9536 29.1721 16.7129 28.8752 16.7129H25.5728C25.2759 16.7129 25.0352 16.9536 25.0352 17.2506C25.0352 17.5476 25.2759 17.7883 25.5728 17.7883Z" fill="black"/>
<path d="M5.28991 8.51245C5.73264 8.51245 6.09155 8.15354 6.09155 7.71081C6.09155 7.26808 5.73264 6.90918 5.28991 6.90918C4.84718 6.90918 4.48828 7.26808 4.48828 7.71081C4.48828 8.15354 4.84718 8.51245 5.28991 8.51245Z" fill="black"/>
<path d="M7.7196 8.51245C8.16233 8.51245 8.52123 8.15354 8.52123 7.71081C8.52123 7.26808 8.16233 6.90918 7.7196 6.90918C7.27687 6.90918 6.91797 7.26808 6.91797 7.71081C6.91797 8.15354 7.27687 8.51245 7.7196 8.51245Z" fill="black"/>
<path d="M10.1298 8.51245C10.5725 8.51245 10.9314 8.15354 10.9314 7.71081C10.9314 7.26808 10.5725 6.90918 10.1298 6.90918C9.68703 6.90918 9.32812 7.26808 9.32812 7.71081C9.32812 8.15354 9.68703 8.51245 10.1298 8.51245Z" fill="black"/>
</svg>
