<svg width="70" height="71" viewBox="0 0 70 71" fill="none" xmlns="http://www.w3.org/2000/svg">
<rect y="0.31543" width="70" height="70" rx="5" fill="#8DE4FF"/>
<path d="M30.9213 39.6014C30.9238 39.6016 30.9262 39.6023 30.9286 39.6024C30.9336 39.6025 30.9386 39.6044 30.9436 39.6044C30.9438 39.6044 30.944 39.6043 30.9441 39.6043C30.9443 39.6043 30.9445 39.6044 30.9447 39.6044C30.9479 39.6044 30.951 39.6032 30.9542 39.6032C30.9674 39.6032 30.98 39.6051 30.9931 39.6051H30.9933H30.9934H30.9934C34.9726 39.6051 38.2098 36.3679 38.2098 32.3886C38.2098 28.4093 34.9726 25.1721 30.9934 25.1721C30.9859 25.1721 30.9787 25.1732 30.9712 25.1733C30.9622 25.1728 30.9531 25.1742 30.9441 25.1742C30.9266 25.1742 30.9095 25.1751 30.8922 25.1768C30.8823 25.1778 30.8723 25.1773 30.8624 25.1788C26.9441 25.2497 23.777 28.4535 23.777 32.3886C23.777 36.3435 26.9756 39.5621 30.9213 39.6014ZM25.3801 34.8558H27.0197C27.4006 36.0992 28.0656 37.2349 28.9745 38.1757C27.3669 37.613 26.063 36.4032 25.3801 34.8558ZM37.1287 32.3885C37.1287 32.8658 37.0684 33.3285 36.9649 33.7747H35.1189C35.1946 33.3177 35.2376 32.8508 35.2376 32.3752C35.2376 31.9094 35.1956 31.4516 35.1216 31.0028H36.965C37.0685 31.4489 37.1287 31.9114 37.1287 32.3885ZM34.1565 32.402C34.1565 32.8689 34.1117 33.3279 34.0266 33.7748H31.5338V31.0028H34.0242C34.1112 31.4574 34.1565 31.9252 34.1565 32.402ZM28.1617 34.8558H30.4527V38.0613C29.3937 37.2152 28.6098 36.1078 28.1617 34.8558ZM31.5338 37.978V34.8557H33.7295C33.2961 36.0651 32.5445 37.1414 31.5338 37.978ZM31.5338 29.9217V26.7992C32.5424 27.6343 33.2929 28.7094 33.7267 29.9217H31.5338ZM30.4527 26.7159V29.9217H28.1588C28.6063 28.6727 29.3913 27.5635 30.4527 26.7159ZM30.4527 31.0028V33.7747H27.864C27.777 33.32 27.7317 32.8521 27.7317 32.3752C27.7317 31.9084 27.7765 31.4495 27.8616 31.0028H30.4527ZM26.7668 33.7747H25.0218C24.9182 33.3285 24.858 32.8658 24.858 32.3885C24.858 31.9114 24.9181 31.4489 25.0217 31.0028H26.7694C26.6938 31.4596 26.6508 31.9264 26.6508 32.4019C26.6508 32.8678 26.6929 33.3258 26.7668 33.7747ZM32.8537 38.2339C33.7901 37.2832 34.4762 36.1283 34.8656 34.8557H36.6066C35.9011 36.4545 34.5349 37.6974 32.8537 38.2339ZM36.6067 29.9217H34.8687C34.4799 28.6519 33.7929 27.4959 32.8544 26.5435C34.5354 27.08 35.9014 28.3231 36.6067 29.9217ZM28.975 26.6013C28.0681 27.5406 27.4039 28.6754 27.0225 29.9217H25.3799C26.0628 28.3739 27.367 27.1639 28.975 26.6013ZM50.0219 22.4117C49.6515 21.6938 49.0262 21.1642 48.2611 20.92L31.1584 15.4592C30.3938 15.2143 29.577 15.284 28.8591 15.6549C28.1414 16.0251 27.6116 16.6504 27.3674 17.4154L26.2323 20.97H22.0167C20.3533 20.97 19 22.3235 19 23.9869V52.2989C19 53.9624 20.3533 55.3154 22.0167 55.3154H39.9699C41.6334 55.3154 42.9867 53.9624 42.9867 52.2989V47.3573L50.2174 24.7111C50.4616 23.9464 50.3923 23.1296 50.0219 22.4117ZM41.9056 52.2989C41.9056 53.3663 41.0372 54.2344 39.9699 54.2344H22.0167C20.9494 54.2344 20.0811 53.3663 20.0811 52.2989V23.9869C20.0811 22.9196 20.9495 22.0511 22.0167 22.0511H39.9699C41.0373 22.0511 41.9056 22.9196 41.9056 23.9869V52.2989ZM49.1877 24.3824L42.9867 43.8037V23.9869C42.9867 22.3235 41.6334 20.97 39.9699 20.97H27.3669L28.397 17.7442C28.5534 17.2543 28.8936 16.8535 29.3548 16.6153C29.8158 16.3774 30.3394 16.3327 30.8298 16.4889L47.9324 21.9498C48.4223 22.1063 48.8233 22.4463 49.0612 22.9077C49.2991 23.3686 49.3441 23.8926 49.1877 24.3824ZM38.2845 43.7839C38.2845 44.0824 38.0425 44.3245 37.7439 44.3245H24.2425C23.9439 44.3245 23.702 44.0824 23.702 43.7839C23.702 43.4855 23.9439 43.2434 24.2425 43.2434H37.744C38.0426 43.2434 38.2845 43.4855 38.2845 43.7839ZM38.2845 47.5996C38.2845 47.898 38.0425 48.1401 37.7439 48.1401H24.2425C23.9439 48.1401 23.702 47.898 23.702 47.5996C23.702 47.3011 23.9439 47.059 24.2425 47.059H37.744C38.0426 47.0591 38.2845 47.3012 38.2845 47.5996ZM35.2222 51.4153C35.2222 51.7137 34.9802 51.9558 34.6816 51.9558H27.3048C27.0063 51.9558 26.7643 51.7137 26.7643 51.4153C26.7643 51.1168 27.0063 50.8747 27.3048 50.8747H34.6816C34.9803 50.8747 35.2222 51.1168 35.2222 51.4153Z" fill="#0F0F0F"/>
</svg>
