<svg width="70" height="71" viewBox="0 0 70 71" fill="none" xmlns="http://www.w3.org/2000/svg">
<rect y="0.31543" width="70" height="70" rx="5" fill="#F5A0C5"/>
<path d="M27.2277 55.3138C27.1644 55.3138 27.1027 55.3121 27.0394 55.3071C26.3127 55.2521 25.6477 54.8821 25.2144 54.2938L21.646 49.4088C21.5144 49.2371 21.3894 49.1104 21.251 49.0121L16.0244 45.1554C15.4444 44.7388 15.071 44.0821 15.0094 43.3654C14.946 42.6354 15.206 41.9154 15.7244 41.3854C16.4944 40.6154 17.6644 40.4004 18.646 40.8404L22.8944 42.6988L31.1577 33.7838C31.431 33.4938 31.4327 33.1704 31.4094 33.0038C31.3694 32.7154 31.2044 32.4638 30.956 32.3138L17.0644 24.9521C16.3244 24.5104 15.8677 23.8021 15.7727 22.9904C15.676 22.1821 15.956 21.3904 16.5377 20.8204C17.091 20.2688 17.8977 20.0388 18.641 20.2254L38.8944 24.5004C39.2244 24.5721 39.5677 24.4671 39.806 24.2204L47.066 16.5121C47.7844 15.7504 49.0194 15.3154 50.4544 15.3154C51.871 15.3154 53.106 15.7388 53.8444 16.4754C54.596 17.2271 55.0294 18.5421 55.0044 19.9921C54.9794 21.3804 54.5444 22.5704 53.8077 23.2588L47.8277 28.9054C47.4927 29.2221 46.9644 29.2054 46.6494 28.8721C46.3327 28.5371 46.3477 28.0104 46.6827 27.6938L52.666 22.0438C53.0594 21.6754 53.321 20.8604 53.3377 19.9621C53.3544 18.9854 53.091 18.0788 52.666 17.6538C52.2577 17.2454 51.3894 16.9821 50.4544 16.9821C49.5044 16.9821 48.6694 17.2404 48.276 17.6554L41.011 25.3704C40.361 26.0421 39.4427 26.3238 38.5444 26.1304L18.266 21.8471C18.0594 21.7954 17.8577 21.8604 17.711 22.0054C17.4944 22.2171 17.3944 22.5038 17.4294 22.7971C17.4644 23.0921 17.6294 23.3488 17.8844 23.5021L31.7777 30.8638C32.501 31.2988 32.9544 31.9871 33.0627 32.7771C33.1694 33.5621 32.921 34.3421 32.3777 34.9204L23.716 44.2654C23.4744 44.5271 23.096 44.6038 22.771 44.4621L17.971 42.3621C17.6144 42.2004 17.1827 42.2838 16.911 42.5554C16.7394 42.7304 16.6494 42.9738 16.671 43.2188C16.6927 43.4571 16.811 43.6654 17.0077 43.8071L22.2327 47.6621C22.496 47.8504 22.7377 48.0888 22.9827 48.4088L26.561 53.3071C26.7044 53.5021 26.926 53.6254 27.1677 53.6438C27.4027 53.6621 27.6294 53.5788 27.7994 53.4088C28.0827 53.1338 28.161 52.7088 28.006 52.3404L25.9077 47.5488C25.766 47.2238 25.8444 46.8454 26.1044 46.6054L30.2877 42.7221C30.6227 42.4088 31.1527 42.4271 31.466 42.7654C31.7794 43.1038 31.7594 43.6304 31.4227 43.9438L27.6727 47.4254L29.5344 51.6838C29.9627 52.6888 29.7344 53.8571 28.9677 54.6004C28.511 55.0554 27.8827 55.3138 27.2277 55.3138Z" fill="#0F0F0F"/>
<path d="M45.0044 55.3152C44.8944 55.3152 44.7844 55.2935 44.6811 55.2485C44.2844 55.0835 35.0044 51.0719 35.0044 42.8752V35.9102C35.0044 35.5535 35.2327 35.2352 35.5711 35.1202L44.7377 32.0252C44.9111 31.9669 45.0977 31.9669 45.2711 32.0252L54.4377 35.1202C54.7761 35.2335 55.0044 35.5519 55.0044 35.9102V42.8752C55.0044 51.0719 45.7244 55.0835 45.3277 55.2502C45.2244 55.2935 45.1144 55.3152 45.0044 55.3152ZM36.6711 36.5085V42.8752C36.6711 49.1835 43.4294 52.8052 45.0044 53.5652C46.5777 52.8035 53.3377 49.1685 53.3377 42.8752V36.5085L45.0044 33.6952L36.6711 36.5085Z" fill="#0F0F0F"/>
<path d="M44.171 46.9819C44.156 46.9819 44.1394 46.9819 44.1244 46.9802C43.8877 46.9669 43.6677 46.8535 43.5194 46.6685L40.186 42.5019C39.8994 42.1419 39.9577 41.6185 40.316 41.3302C40.676 41.0435 41.201 41.1019 41.4877 41.4602L44.2394 44.9002L49.4144 39.7252C49.7394 39.4002 50.2677 39.4002 50.5927 39.7252C50.9177 40.0502 50.9177 40.5785 50.5927 40.9035L44.7594 46.7369C44.6044 46.8952 44.391 46.9819 44.171 46.9819Z" fill="#0F0F0F"/>
</svg>
