<svg width="70" height="71" viewBox="0 0 70 71" fill="none" xmlns="http://www.w3.org/2000/svg">
<rect y="0.31543" width="70" height="70" rx="5" fill="#D4A3FF"/>
<path d="M41.7413 53.0722H27.5717C26.6251 53.0701 25.7178 52.6931 25.0484 52.0238C24.379 51.3544 24.0021 50.4471 24 49.5005V28.0468C24.0021 27.1002 24.379 26.1929 25.0484 25.5235C25.7178 24.8541 26.6251 24.4772 27.5717 24.4751H41.7413C42.6879 24.4772 43.5952 24.8541 44.2646 25.5235C44.934 26.1929 45.3109 27.1002 45.313 28.0468V49.5005C45.3109 50.4471 44.934 51.3544 44.2646 52.0238C43.5952 52.6931 42.6879 53.0701 41.7413 53.0722ZM27.5717 25.8819C26.9975 25.8819 26.4469 26.11 26.0409 26.516C25.6349 26.922 25.4068 27.4726 25.4068 28.0468V49.5005C25.4068 49.7848 25.4628 50.0663 25.5716 50.3289C25.6804 50.5916 25.8399 50.8302 26.0409 51.0313C26.2419 51.2323 26.4806 51.3918 26.7432 51.5006C27.0059 51.6094 27.2874 51.6654 27.5717 51.6654H41.7413C42.0256 51.6654 42.3071 51.6094 42.5698 51.5006C42.8324 51.3918 43.0711 51.2323 43.2721 51.0313C43.4731 50.8302 43.6326 50.5916 43.7414 50.3289C43.8502 50.0663 43.9062 49.7848 43.9062 49.5005V28.0468C43.9062 27.4726 43.6781 26.922 43.2721 26.516C42.8661 26.11 42.3154 25.8819 41.7413 25.8819H27.5717Z" fill="#0F0F0F"/>
<path d="M29.5177 55.3154C29.192 55.3168 28.8716 55.2323 28.5889 55.0704C28.3062 54.9085 28.0713 54.6749 27.9077 54.3932L26.9386 52.7206C26.8793 52.6133 26.8487 52.4925 26.8499 52.3698C26.8511 52.2472 26.8839 52.127 26.9453 52.0208C27.0066 51.9146 27.0944 51.8261 27.2 51.7639C27.3056 51.7016 27.4256 51.6677 27.5482 51.6655H31.456C31.5786 51.6677 31.6985 51.7016 31.8042 51.7639C31.9098 51.8261 31.9976 51.9146 32.0589 52.0208C32.1203 52.127 32.1531 52.2472 32.1543 52.3698C32.1554 52.4925 32.1249 52.6133 32.0656 52.7206L31.1433 54.3932C30.9772 54.6761 30.7395 54.9103 30.4542 55.0722C30.1688 55.2341 29.8458 55.318 29.5177 55.3154ZM28.7362 53.0723L29.08 53.6741C29.1206 53.746 29.1797 53.8057 29.2512 53.8469C29.3227 53.8882 29.4039 53.9095 29.4864 53.9086C29.5688 53.9086 29.6497 53.887 29.7211 53.8458C29.7924 53.8047 29.8517 53.7455 29.8929 53.6741L30.2524 53.0723H28.7362Z" fill="#0F0F0F"/>
<path d="M38.5995 55.3154C38.2714 55.318 37.9484 55.2341 37.663 55.0722C37.3777 54.9103 37.14 54.6761 36.9739 54.3931L36.0204 52.7362C35.9611 52.6289 35.9305 52.5081 35.9317 52.3855C35.9328 52.2628 35.9657 52.1426 36.027 52.0364C36.0884 51.9303 36.1761 51.8417 36.2818 51.7795C36.3874 51.7172 36.5074 51.6834 36.63 51.6811H40.5378C40.6621 51.6766 40.7855 51.7048 40.8955 51.7629C41.0056 51.821 41.0984 51.9069 41.1649 52.0121C41.2313 52.1173 41.269 52.2381 41.2742 52.3624C41.2793 52.4868 41.2518 52.6103 41.1943 52.7206L40.2251 54.3931C40.059 54.6761 39.8213 54.9103 39.536 55.0722C39.2506 55.2341 38.9276 55.318 38.5995 55.3154ZM37.8179 53.0723L38.1618 53.6741C38.2046 53.7386 38.2627 53.7915 38.3309 53.8281C38.399 53.8647 38.4752 53.8838 38.5526 53.8838C38.63 53.8838 38.7062 53.8647 38.7744 53.8281C38.8425 53.7915 38.9006 53.7386 38.9434 53.6741L39.2873 53.0723H37.8179Z" fill="#0F0F0F"/>
<path d="M37.9039 25.882H31.4092C31.2227 25.882 31.0437 25.8079 30.9118 25.676C30.7799 25.5441 30.7058 25.3652 30.7058 25.1786V16.0188C30.7058 15.8323 30.7799 15.6534 30.9118 15.5215C31.0437 15.3895 31.2227 15.3154 31.4092 15.3154H37.9039C38.0905 15.3154 38.2694 15.3895 38.4013 15.5215C38.5332 15.6534 38.6073 15.8323 38.6073 16.0188V25.1786C38.6073 25.3652 38.5332 25.5441 38.4013 25.676C38.2694 25.8079 38.0905 25.882 37.9039 25.882ZM32.1126 24.4752H37.2005V16.7222H32.1126V24.4752Z" fill="#0F0F0F"/>
<path d="M40.4127 16.7222H28.9239C28.7373 16.7222 28.5584 16.6481 28.4265 16.5162C28.2946 16.3843 28.2205 16.2054 28.2205 16.0188C28.2205 15.8323 28.2946 15.6534 28.4265 15.5215C28.5584 15.3895 28.7373 15.3154 28.9239 15.3154H40.4127C40.5993 15.3154 40.7782 15.3895 40.9101 15.5215C41.042 15.6534 41.1161 15.8323 41.1161 16.0188C41.1161 16.2054 41.042 16.3843 40.9101 16.5162C40.7782 16.6481 40.5993 16.7222 40.4127 16.7222Z" fill="#0F0F0F"/>
<path d="M29.5176 45.1474C29.3311 45.1474 29.1521 45.0733 29.0202 44.9414C28.8883 44.8094 28.8142 44.6305 28.8142 44.444V28.5081C28.8142 28.4157 28.8324 28.3242 28.8678 28.2389C28.9031 28.1536 28.9549 28.076 29.0202 28.0107C29.0855 27.9454 29.1631 27.8936 29.2484 27.8582C29.3338 27.8229 29.4252 27.8047 29.5176 27.8047C29.61 27.8047 29.7014 27.8229 29.7868 27.8582C29.8721 27.8936 29.9497 27.9454 30.015 28.0107C30.0803 28.076 30.1321 28.1536 30.1675 28.2389C30.2028 28.3242 30.221 28.4157 30.221 28.5081V44.444C30.221 44.6305 30.1469 44.8094 30.015 44.9414C29.8831 45.0733 29.7042 45.1474 29.5176 45.1474Z" fill="#0F0F0F"/>
<path d="M34.6604 48.5551C34.4739 48.5551 34.295 48.481 34.1631 48.3491C34.0311 48.2172 33.957 48.0382 33.957 47.8517V31.9158C33.957 31.7292 34.0311 31.5503 34.1631 31.4184C34.295 31.2865 34.4739 31.2124 34.6604 31.2124C34.847 31.2124 35.0259 31.2865 35.1578 31.4184C35.2897 31.5503 35.3638 31.7292 35.3638 31.9158V47.8517C35.3638 47.9441 35.3456 48.0355 35.3103 48.1209C35.2749 48.2062 35.2231 48.2837 35.1578 48.3491C35.0925 48.4144 35.0149 48.4662 34.9296 48.5015C34.8443 48.5369 34.7528 48.5551 34.6604 48.5551Z" fill="#0F0F0F"/>
<path d="M39.7952 45.1474C39.6086 45.1474 39.4297 45.0733 39.2978 44.9414C39.1659 44.8094 39.0918 44.6305 39.0918 44.444V28.5081C39.0918 28.3215 39.1659 28.1426 39.2978 28.0107C39.4297 27.8788 39.6086 27.8047 39.7952 27.8047C39.9817 27.8047 40.1607 27.8788 40.2926 28.0107C40.4245 28.1426 40.4986 28.3215 40.4986 28.5081V44.444C40.4986 44.6305 40.4245 44.8094 40.2926 44.9414C40.1607 45.0733 39.9817 45.1474 39.7952 45.1474Z" fill="#0F0F0F"/>
</svg>
