<svg width="18" height="16" viewBox="0 0 18 16" fill="none" xmlns="http://www.w3.org/2000/svg">
<path d="M17.1912 0.631457C16.9745 0.422538 16.7183 0.259125 16.4375 0.150861C16.1567 0.0425978 15.8571 -0.00832216 15.5563 0.0011062C12.9872 0.0863692 10.8966 0.644861 9.33839 1.66206C9.21857 1.74024 9.0786 1.78187 8.93553 1.78187C8.79247 1.78187 8.65249 1.74024 8.53267 1.66206C6.9756 0.645233 4.88386 0.0867417 2.3148 0.00147867C2.014 -0.00849248 1.71427 0.0421782 1.43346 0.150472C1.15265 0.258767 0.896503 0.422469 0.680285 0.631829C0.464297 0.83935 0.292651 1.08853 0.175729 1.36429C0.0588075 1.64005 -0.000960097 1.93667 4.22552e-05 2.23619V11.9364C-0.00352908 12.5154 0.219407 13.0728 0.621235 13.4895C1.02306 13.9063 1.57193 14.1495 2.15061 14.1671C4.4218 14.2415 6.31174 14.7442 7.7694 15.6649C8.11922 15.8839 8.52358 16 8.93628 16C9.34897 16 9.75333 15.8839 10.1032 15.6649C11.5601 14.7442 13.4504 14.2404 15.7212 14.1671C16.2999 14.1495 16.8487 13.9063 17.2506 13.4895C17.6524 13.0728 17.8753 12.5154 17.8718 11.9364V2.23619C17.8728 1.93658 17.813 1.63987 17.696 1.36404C17.579 1.08821 17.4073 0.838989 17.1912 0.631457ZM2.19864 12.6781C2.00785 12.669 1.82784 12.587 1.69583 12.449C1.56382 12.3109 1.4899 12.1274 1.48935 11.9364V2.23619C1.48913 2.13635 1.50915 2.0375 1.54818 1.94561C1.58722 1.85372 1.64446 1.77068 1.71647 1.70153C1.85675 1.56497 2.04494 1.48879 2.24071 1.4893H2.26603C4.55808 1.56376 6.39253 2.04295 7.71839 2.90824C7.86635 3.0029 8.02509 3.07952 8.19125 3.13648V14.1905C6.34637 13.2067 4.28942 12.6876 2.19864 12.6781ZM16.3825 11.9364C16.3819 12.1271 16.3083 12.3104 16.1767 12.4484C16.045 12.5863 15.8655 12.6686 15.675 12.6781C13.5836 12.6871 11.5259 13.2064 9.68056 14.1909V3.13685C9.84665 3.07974 10.0054 3.00313 10.1534 2.90861C11.4793 2.04332 13.3137 1.56563 15.6054 1.48967C15.7068 1.48493 15.808 1.50131 15.9026 1.53778C15.9973 1.57425 16.0834 1.63001 16.1553 1.70153C16.2273 1.77068 16.2846 1.85372 16.3236 1.94561C16.3627 2.0375 16.3827 2.13635 16.3825 2.23619V11.9364Z" fill="#262626"/>
</svg>
