<svg width="19" height="16" viewBox="0 0 19 16" fill="none" xmlns="http://www.w3.org/2000/svg">
<path fill-rule="evenodd" clip-rule="evenodd" d="M13.4923 1.0657C12.3857 1.14527 11.0866 1.75703 9.75636 3.28149C9.65632 3.39613 9.51171 3.46207 9.35955 3.46242C9.2074 3.46277 9.06249 3.3975 8.96192 3.28331C7.10469 1.17458 5.30148 0.812163 3.94529 1.22691C2.54913 1.65389 1.46753 2.94649 1.15498 4.45409C1.09575 4.73976 0.816162 4.92333 0.530494 4.86411C0.244825 4.80488 0.0612556 4.52529 0.12048 4.23962C0.500686 2.40569 1.82337 0.771044 3.63631 0.216608C5.37004 -0.3136 7.41702 0.179352 9.35644 2.15616C10.6978 0.774811 12.0923 0.107154 13.4165 0.0119213C14.872 -0.092748 16.1598 0.500747 17.0937 1.44132C18.9358 3.29638 19.5019 6.63644 17.2318 8.9294C17.2262 8.93509 17.2204 8.94066 17.2145 8.94609L9.71644 15.8601C9.51361 16.0471 9.201 16.0466 8.99885 15.8588L4.61137 11.7838C4.39761 11.5852 4.38527 11.251 4.58381 11.0372C4.78236 10.8234 5.1166 10.8111 5.33036 11.0096L9.35964 14.752L16.4892 8.17779C18.2576 6.38219 17.865 3.71742 16.3441 2.18575C15.5954 1.43178 14.5986 0.986138 13.4923 1.0657Z" fill="#262626"/>
<path fill-rule="evenodd" clip-rule="evenodd" d="M5.99447 4.75688C6.172 4.76794 6.33205 4.86759 6.4203 5.02203L8.73813 9.07822L10.2933 7.00469C10.393 6.87167 10.5496 6.79339 10.7159 6.79339H12.7534C13.0451 6.79339 13.2817 7.02989 13.2817 7.32164C13.2817 7.61338 13.0451 7.84988 12.7534 7.84988H10.98L9.10095 10.3553C8.99423 10.4976 8.82306 10.5766 8.64553 10.5656C8.468 10.5545 8.30795 10.4549 8.21971 10.3004L5.90188 6.24422L4.34672 8.31776C4.24696 8.45077 4.09039 8.52906 3.92412 8.52906H0.528248C0.236504 8.52906 0 8.29255 0 8.00081C0 7.70907 0.236504 7.47256 0.528248 7.47256H3.66L5.53905 4.96716C5.64578 4.82486 5.81695 4.74583 5.99447 4.75688Z" fill="#262626"/>
</svg>
