<svg width="12" height="16" viewBox="0 0 12 16" fill="none" xmlns="http://www.w3.org/2000/svg">
<path fill-rule="evenodd" clip-rule="evenodd" d="M1.49157 1.14286C1.21698 1.14286 0.994382 1.39869 0.994382 1.71429V14.2857C0.994382 14.6013 1.21698 14.8571 1.49157 14.8571H10.441C10.7156 14.8571 10.9382 14.6013 10.9382 14.2857V1.71429C10.9382 1.39869 10.7156 1.14286 10.441 1.14286H1.49157ZM0 1.71429C0 0.767512 0.6678 0 1.49157 0H10.441C11.2648 0 11.9326 0.767512 11.9326 1.71429V14.2857C11.9326 15.2325 11.2648 16 10.441 16H1.49157C0.6678 16 0 15.2325 0 14.2857V1.71429Z" fill="#262626"/>
<path fill-rule="evenodd" clip-rule="evenodd" d="M5.96658 3.11106C4.73928 3.11106 3.74436 4.10598 3.74436 5.33328C3.74436 6.56058 4.73928 7.5555 5.96658 7.5555C7.19388 7.5555 8.1888 6.56058 8.1888 5.33328C8.1888 4.10598 7.19388 3.11106 5.96658 3.11106ZM2.85547 5.33328C2.85547 3.61506 4.24836 2.22217 5.96658 2.22217C7.6848 2.22217 9.07769 3.61506 9.07769 5.33328C9.07769 7.0515 7.6848 8.44439 5.96658 8.44439C4.24836 8.44439 2.85547 7.0515 2.85547 5.33328Z" fill="#262626"/>
<path fill-rule="evenodd" clip-rule="evenodd" d="M2.85547 5.3336C2.85547 5.08814 3.05445 4.88916 3.29991 4.88916H8.63325C8.87871 4.88916 9.07769 5.08814 9.07769 5.3336C9.07769 5.57906 8.87871 5.77805 8.63325 5.77805H3.29991C3.05445 5.77805 2.85547 5.57906 2.85547 5.3336Z" fill="#262626"/>
<path fill-rule="evenodd" clip-rule="evenodd" d="M5.96788 2.22217C6.21334 2.22217 6.41233 2.42115 6.41233 2.66661V7.99995C6.41233 8.24541 6.21334 8.44439 5.96788 8.44439C5.72242 8.44439 5.52344 8.24541 5.52344 7.99995V2.66661C5.52344 2.42115 5.72242 2.22217 5.96788 2.22217Z" fill="#262626"/>
<path fill-rule="evenodd" clip-rule="evenodd" d="M2.76562 11.7335C2.76562 11.439 3.00441 11.2002 3.29896 11.2002L8.63229 11.2002C8.92684 11.2002 9.16562 11.439 9.16562 11.7335C9.16562 12.0281 8.92684 12.2669 8.63229 12.2669L3.29896 12.2669C3.00441 12.2669 2.76562 12.0281 2.76562 11.7335Z" fill="#262626"/>
</svg>
