<svg width="18" height="16" viewBox="0 0 18 16" fill="none" xmlns="http://www.w3.org/2000/svg">
<path fill-rule="evenodd" clip-rule="evenodd" d="M2.9913 4.10428C1.87713 4.10428 0.973913 5.0075 0.973913 6.12168V13.0086C0.973913 14.1228 1.87713 15.026 2.9913 15.026H14.2609C15.375 15.026 16.2783 14.1228 16.2783 13.0086V6.12168C16.2783 5.0075 15.375 4.10428 14.2609 4.10428H2.9913ZM0 6.12168C0 4.46962 1.33925 3.13037 2.9913 3.13037H14.2609C15.9129 3.13037 17.2522 4.46962 17.2522 6.12168V13.0086C17.2522 14.6607 15.9129 15.9999 14.2609 15.9999H2.9913C1.33925 15.9999 0 14.6607 0 13.0086V6.12168Z" fill="#262626"/>
<path fill-rule="evenodd" clip-rule="evenodd" d="M4.86977 3.13037C5.13871 3.13037 5.35673 3.34839 5.35673 3.61733V15.513C5.35673 15.7819 5.13871 15.9999 4.86977 15.9999C4.60083 15.9999 4.38281 15.7819 4.38281 15.513V3.61733C4.38281 3.34839 4.60083 3.13037 4.86977 3.13037Z" fill="#262626"/>
<path fill-rule="evenodd" clip-rule="evenodd" d="M12.3815 3.13037C12.6504 3.13037 12.8684 3.34839 12.8684 3.61733V15.513C12.8684 15.7819 12.6504 15.9999 12.3815 15.9999C12.1125 15.9999 11.8945 15.7819 11.8945 15.513V3.61733C11.8945 3.34839 12.1125 3.13037 12.3815 3.13037Z" fill="#262626"/>
<path fill-rule="evenodd" clip-rule="evenodd" d="M8.6252 0.973913C7.92411 0.973913 7.25173 1.25242 6.75598 1.74817C6.26023 2.24392 5.98173 2.9163 5.98173 3.61739C5.98173 3.88633 5.76371 4.10435 5.49477 4.10435C5.22583 4.10435 5.00781 3.88633 5.00781 3.61739C5.00781 2.658 5.38893 1.7379 6.06732 1.05951C6.74571 0.381117 7.66581 0 8.6252 0C9.5846 0 10.5047 0.381117 11.1831 1.05951C11.8615 1.7379 12.2426 2.658 12.2426 3.61739C12.2426 3.88633 12.0246 4.10435 11.7556 4.10435C11.4867 4.10435 11.2687 3.88633 11.2687 3.61739C11.2687 2.9163 10.9902 2.24392 10.4944 1.74817C9.99868 1.25242 9.3263 0.973913 8.6252 0.973913Z" fill="#262626"/>
</svg>
